<svg width="1200" height="1500" viewBox="0 0 1200 1500" fill="none" xmlns="http://www.w3.org/2000/svg" role="img" aria-label="Ruhiger Behandlungsraum, Platzhalter">
  <defs>
    <linearGradient id="bg" x1="0" y1="0" x2="0.4" y2="1">
      <stop offset="0" stop-color="#FBE2F1"></stop>
      <stop offset="0.55" stop-color="#FDF1F9"></stop>
      <stop offset="1" stop-color="#FBFAF6"></stop>
    </linearGradient>
    <radialGradient id="glow" cx="0.62" cy="0.34" r="0.5">
      <stop offset="0" stop-color="#FFFFFF" stop-opacity="0.9"></stop>
      <stop offset="1" stop-color="#FFFFFF" stop-opacity="0"></stop>
    </radialGradient>
    <linearGradient id="stone" x1="0" y1="0" x2="1" y2="1">
      <stop offset="0" stop-color="#E79CC8"></stop>
      <stop offset="1" stop-color="#CD4FA0"></stop>
    </linearGradient>
  </defs>
  <rect width="1200" height="1500" fill="url(#bg)"></rect>
  <rect width="1200" height="1500" fill="url(#glow)"></rect>
  
  <g>
    <ellipse cx="690" cy="690" rx="150" ry="46" fill="url(#stone)" opacity="0.95"></ellipse>
    <ellipse cx="690" cy="612" rx="120" ry="38" fill="#9A84BE" opacity="0.95"></ellipse>
    <ellipse cx="690" cy="548" rx="92" ry="30" fill="#B49ED2" opacity="0.95"></ellipse>
    <ellipse cx="690" cy="498" rx="64" ry="22" fill="#C9B7E1" opacity="0.95"></ellipse>
  </g>
  
  <g stroke="#7C8A4E" stroke-width="3" fill="none" stroke-linecap="round" opacity="0.55">
    <path d="M300 1160 C 360 980, 360 880, 330 760"></path>
    <path d="M330 980 C 270 940, 250 900, 250 860"></path>
    <path d="M330 920 C 392 884, 410 846, 412 806"></path>
    <path d="M330 1050 C 268 1014, 250 974, 250 936"></path>
  </g>
  <g fill="#B9C08C" opacity="0.6">
    <path d="M250 856 C 210 872, 206 916, 246 934 C 286 916, 290 872, 250 856 Z"></path>
    <path d="M412 802 C 452 818, 456 862, 416 880 C 376 862, 372 818, 412 802 Z"></path>
  </g>
  
  <path d="M470 1240 C 600 1330, 800 1330, 930 1240" stroke="#CD4FA0" stroke-width="3" opacity="0.35" fill="none"></path>
  <circle cx="852" cy="372" r="170" fill="#FFFFFF" opacity="0.5"></circle>
  <text x="600" y="1410" text-anchor="middle" font-family="Georgia, serif" font-size="30" fill="#6E6C66" opacity="0.7">Platzhalter · bitte durch echtes Foto ersetzen</text>
</svg>