<svg width="1200" height="630" viewBox="0 0 1200 630" fill="none" xmlns="http://www.w3.org/2000/svg">
  <defs>
    <linearGradient id="ogbg" x1="0" y1="0" x2="1" y2="1">
      <stop offset="0" stop-color="#F6F2FB"/>
      <stop offset="1" stop-color="#FBFAF6"/>
    </linearGradient>
  </defs>
  <rect width="1200" height="630" fill="url(#ogbg)"/>
  <g transform="translate(120 250)">
    <rect x="0" y="0" width="96" height="96" rx="22" fill="#5E4A85"/>
    <g stroke="#F6F2FB" stroke-width="3.6" stroke-linecap="round" stroke-linejoin="round" fill="none" transform="translate(0 0) scale(1.5)">
      <path d="M32 46c0-9 0-15-0-20"/>
      <path d="M32 30c-5-5-12-5-15-2 0 6 7 11 15 11 8 0 15-5 15-11-3-3-10-3-15 2Z"/>
      <path d="M32 30c-3-6-2-13 1-16 4 3 5 10 2 16"/>
    </g>
  </g>
  <text x="248" y="296" font-family="Georgia, serif" font-size="58" fill="#2B2A28">Reth Thaimassage</text>
  <text x="248" y="362" font-family="Georgia, serif" font-size="58" fill="#5E4A85">&amp; Kosmetik</text>
  <text x="248" y="424" font-family="Helvetica, Arial, sans-serif" font-size="28" fill="#6E6C66">Gesundheit · Wohlbefinden · mehr Lebensfreude</text>
</svg>
