<svg width="1200" height="1040" viewBox="0 0 1200 1040" fill="none" xmlns="http://www.w3.org/2000/svg" role="img" aria-label="Atmosphaere im Studio, Platzhalter">
  <defs>
    <linearGradient id="sbg" x1="0" y1="0" x2="0.6" y2="1">
      <stop offset="0" stop-color="#FBFAF6"/>
      <stop offset="1" stop-color="#EDEFE2"/>
    </linearGradient>
    <radialGradient id="sglow" cx="0.3" cy="0.28" r="0.6">
      <stop offset="0" stop-color="#F6F2FB" stop-opacity="0.95"/>
      <stop offset="1" stop-color="#F6F2FB" stop-opacity="0"/>
    </radialGradient>
  </defs>
  <rect width="1200" height="1040" fill="url(#sbg)"/>
  <rect width="1200" height="1040" fill="url(#sglow)"/>
  <!-- Vase -->
  <path d="M560 720 C 540 600, 560 540, 600 540 C 640 540, 660 600, 640 720 C 632 760, 568 760, 560 720 Z" fill="#C2ABDF" opacity="0.85"/>
  <path d="M560 720 C 540 600, 560 540, 600 540" stroke="#5E4A85" stroke-width="2" opacity="0.3" fill="none"/>
  <!-- Zweige -->
  <g stroke="#5A6638" stroke-width="3.5" fill="none" stroke-linecap="round" opacity="0.7">
    <path d="M600 540 C 600 420, 560 360, 520 320"/>
    <path d="M600 540 C 610 420, 660 380, 700 360"/>
    <path d="M600 540 C 596 440, 600 380, 600 330"/>
  </g>
  <g fill="#7C8A4E" opacity="0.75">
    <path d="M520 320 C 484 300, 470 332, 496 356 C 528 350, 540 326, 520 320 Z"/>
    <path d="M700 360 C 736 340, 752 372, 726 396 C 694 388, 682 366, 700 360 Z"/>
    <path d="M600 330 C 576 304, 600 286, 624 308 C 620 332, 612 338, 600 330 Z"/>
  </g>
  <!-- Tischlinie -->
  <line x1="180" y1="760" x2="1020" y2="760" stroke="#5E4A85" stroke-width="2" opacity="0.25"/>
  <!-- Kerze -->
  <rect x="760" y="690" width="64" height="70" rx="10" fill="#ECE3F6"/>
  <ellipse cx="792" cy="676" rx="9" ry="14" fill="#B9C08C" opacity="0.9"/>
  <text x="600" y="950" text-anchor="middle" font-family="Georgia, serif" font-size="28" fill="#6E6C66" opacity="0.7">Platzhalter · Studiofoto hier einsetzen</text>
</svg>
